<svg width="356" height="810" viewBox="0 0 356 810" fill="none" xmlns="http://www.w3.org/2000/svg">
<circle cx="2.88955" cy="158.89" r="2.88955" fill="black"/>
<circle cx="2.88955" cy="164.669" r="2.88955" fill="black"/>
<circle cx="2.88955" cy="170.448" r="2.88955" fill="black"/>
<circle cx="2.88955" cy="176.227" r="2.88955" fill="black"/>
<circle cx="2.88955" cy="182.006" r="2.88955" fill="black"/>
<circle cx="2.88955" cy="187.785" r="2.88955" fill="black"/>
<circle cx="2.88955" cy="193.564" r="2.88955" fill="black"/>
<circle cx="2.88955" cy="199.343" r="2.88955" fill="black"/>
<circle cx="2.88955" cy="205.122" r="2.88955" fill="black"/>
<circle cx="2.88955" cy="210.902" r="2.88955" fill="black"/>
<circle cx="2.88955" cy="216.681" r="2.88955" fill="black"/>
<circle cx="2.88955" cy="222.46" r="2.88955" fill="black"/>
<circle cx="2.88955" cy="228.239" r="2.88955" fill="black"/>
<circle cx="2.88955" cy="234.018" r="2.88955" fill="black"/>
<circle cx="2.88955" cy="239.797" r="2.88955" fill="black"/>
<circle cx="2.88955" cy="245.576" r="2.88955" fill="black"/>
<circle cx="2.88955" cy="251.355" r="2.88955" fill="black"/>
<circle cx="2.88955" cy="257.134" r="2.88955" fill="black"/>
<circle cx="2.88955" cy="262.913" r="2.88955" fill="black"/>
<circle cx="2.88955" cy="268.693" r="2.88955" fill="black"/>
<circle cx="2.88955" cy="274.472" r="2.88955" fill="black"/>
<circle cx="2.88955" cy="280.251" r="2.88955" fill="black"/>
<circle cx="2.88955" cy="286.03" r="2.88955" fill="black"/>
<circle cx="2.88955" cy="291.809" r="2.88955" fill="black"/>
<circle cx="2.88955" cy="297.588" r="2.88955" fill="black"/>
<circle cx="2.88955" cy="303.367" r="2.88955" fill="black"/>
<circle cx="2.88955" cy="309.146" r="2.88955" fill="black"/>
<circle cx="2.88955" cy="314.925" r="2.88955" fill="black"/>
<circle cx="2.88955" cy="320.704" r="2.88955" fill="black"/>
<circle cx="2.88955" cy="326.484" r="2.88955" fill="black"/>
<circle cx="2.88955" cy="332.263" r="2.88955" fill="black"/>
<circle cx="2.88955" cy="338.042" r="2.88955" fill="black"/>
<circle cx="2.88955" cy="343.821" r="2.88955" fill="black"/>
<circle cx="2.88955" cy="349.6" r="2.88955" fill="black"/>
<circle cx="2.88955" cy="355.379" r="2.88955" fill="black"/>
<circle cx="2.88955" cy="361.158" r="2.88955" fill="black"/>
<circle cx="2.88955" cy="366.937" r="2.88955" fill="black"/>
<circle cx="2.88955" cy="372.717" r="2.88955" fill="black"/>
<circle cx="2.88955" cy="378.496" r="2.88955" fill="black"/>
<circle cx="2.88955" cy="384.275" r="2.88955" fill="black"/>
<circle cx="2.88955" cy="390.054" r="2.88955" fill="black"/>
<circle cx="2.88955" cy="395.833" r="2.88955" fill="black"/>
<circle cx="2.88955" cy="401.612" r="2.88955" fill="black"/>
<circle cx="2.88955" cy="407.391" r="2.88955" fill="black"/>
<circle cx="352.204" cy="158.89" r="2.88955" fill="black"/>
<circle cx="352.204" cy="164.669" r="2.88955" fill="black"/>
<circle cx="352.204" cy="170.448" r="2.88955" fill="black"/>
<circle cx="352.204" cy="176.227" r="2.88955" fill="black"/>
<circle cx="352.204" cy="182.006" r="2.88955" fill="black"/>
<circle cx="352.204" cy="187.785" r="2.88955" fill="black"/>
<circle cx="352.204" cy="193.564" r="2.88955" fill="black"/>
<circle cx="352.204" cy="199.343" r="2.88955" fill="black"/>
<circle cx="352.204" cy="205.122" r="2.88955" fill="black"/>
<circle cx="352.204" cy="210.902" r="2.88955" fill="black"/>
<circle cx="352.204" cy="216.681" r="2.88955" fill="black"/>
<circle cx="352.204" cy="222.46" r="2.88955" fill="black"/>
<circle cx="352.204" cy="228.239" r="2.88955" fill="black"/>
<circle cx="352.204" cy="234.018" r="2.88955" fill="black"/>
<circle cx="352.204" cy="239.797" r="2.88955" fill="black"/>
<circle cx="352.204" cy="245.576" r="2.88955" fill="black"/>
<circle cx="352.204" cy="251.355" r="2.88955" fill="black"/>
<circle cx="352.204" cy="257.134" r="2.88955" fill="black"/>
<circle cx="352.204" cy="262.913" r="2.88955" fill="black"/>
<circle cx="352.204" cy="268.693" r="2.88955" fill="black"/>
<circle cx="352.204" cy="274.472" r="2.88955" fill="black"/>
<circle cx="352.204" cy="280.251" r="2.88955" fill="black"/>
<circle cx="352.204" cy="286.03" r="2.88955" fill="black"/>
<circle cx="352.204" cy="291.809" r="2.88955" fill="black"/>
<circle cx="352.204" cy="297.588" r="2.88955" fill="black"/>
<circle cx="352.204" cy="303.367" r="2.88955" fill="black"/>
<circle cx="352.204" cy="309.146" r="2.88955" fill="black"/>
<circle cx="352.204" cy="314.925" r="2.88955" fill="black"/>
<circle cx="352.204" cy="320.704" r="2.88955" fill="black"/>
<circle cx="352.204" cy="326.484" r="2.88955" fill="black"/>
<circle cx="352.204" cy="332.263" r="2.88955" fill="black"/>
<circle cx="352.204" cy="338.042" r="2.88955" fill="black"/>
<circle cx="352.204" cy="343.821" r="2.88955" fill="black"/>
<circle cx="352.204" cy="349.6" r="2.88955" fill="black"/>
<circle cx="352.204" cy="355.379" r="2.88955" fill="black"/>
<circle cx="352.204" cy="361.158" r="2.88955" fill="black"/>
<circle cx="352.204" cy="366.937" r="2.88955" fill="black"/>
<circle cx="352.204" cy="372.717" r="2.88955" fill="black"/>
<circle cx="352.204" cy="378.496" r="2.88955" fill="black"/>
<circle cx="352.204" cy="384.275" r="2.88955" fill="black"/>
<circle cx="352.204" cy="390.054" r="2.88955" fill="black"/>
<circle cx="352.204" cy="395.833" r="2.88955" fill="black"/>
<circle cx="352.204" cy="401.612" r="2.88955" fill="black"/>
<circle cx="352.204" cy="407.391" r="2.88955" fill="black"/>
<path d="M139.28 682H215.748L341.726 418.381L10.7261 417L139.28 682Z" fill="url(#paint0_linear_574_625)"/>
<path d="M139.602 682.632L11.1909 417.951" stroke="black"/>
<path d="M214.841 683L341.242 417.951" stroke="black"/>
<path d="M199.217 682.632L288.313 415.759" stroke="black"/>
<path d="M177.385 682.632V415.875" stroke="black"/>
<path d="M156.529 682.632L58.3403 417.143" stroke="black"/>
<rect width="348.031" height="2.76814" transform="matrix(1 0 0 -1 2.84326 418.643)" fill="black"/>
<rect x="2.84326" y="161.676" width="349.107" height="5.60272" fill="url(#paint1_linear_574_625)"/>
<rect x="2.84326" y="167.278" width="349.107" height="5.60272" fill="#E0E0E0"/>
<rect x="2.84326" y="172.881" width="349.107" height="5.60272" fill="url(#paint2_linear_574_625)"/>
<rect x="2.84326" y="178.484" width="349.107" height="5.60272" fill="#E0E0E0"/>
<rect x="2.84326" y="184.086" width="349.107" height="5.60272" fill="url(#paint3_linear_574_625)"/>
<rect x="2.84326" y="189.689" width="349.107" height="5.60272" fill="#E0E0E0"/>
<rect x="2.84326" y="195.292" width="349.107" height="5.60272" fill="url(#paint4_linear_574_625)"/>
<rect x="2.84326" y="200.895" width="349.107" height="5.60272" fill="#E0E0E0"/>
<rect x="2.84326" y="206.497" width="349.107" height="5.60272" fill="url(#paint5_linear_574_625)"/>
<rect x="2.84326" y="212.1" width="349.107" height="5.60272" fill="#E0E0E0"/>
<rect x="2.84326" y="217.703" width="349.107" height="5.60272" fill="url(#paint6_linear_574_625)"/>
<rect x="2.84326" y="223.305" width="349.107" height="5.60272" fill="#E0E0E0"/>
<rect x="2.84326" y="228.908" width="349.107" height="5.60272" fill="url(#paint7_linear_574_625)"/>
<rect x="2.84326" y="234.511" width="349.107" height="5.60272" fill="#E0E0E0"/>
<rect x="2.84326" y="240.114" width="349.107" height="5.60272" fill="url(#paint8_linear_574_625)"/>
<rect x="2.84326" y="245.716" width="349.107" height="5.60272" fill="#E0E0E0"/>
<rect x="2.84326" y="251.319" width="349.107" height="5.60272" fill="url(#paint9_linear_574_625)"/>
<rect x="2.84326" y="256.922" width="349.107" height="5.60272" fill="#E0E0E0"/>
<rect x="2.84326" y="262.524" width="349.107" height="5.60272" fill="url(#paint10_linear_574_625)"/>
<rect x="2.84326" y="268.127" width="349.107" height="5.60272" fill="#E0E0E0"/>
<rect x="2.84326" y="273.73" width="349.107" height="5.60272" fill="url(#paint11_linear_574_625)"/>
<rect x="2.84326" y="279.332" width="349.107" height="5.60272" fill="#E0E0E0"/>
<rect x="2.84326" y="284.935" width="349.107" height="5.60272" fill="url(#paint12_linear_574_625)"/>
<rect x="2.84326" y="290.538" width="349.107" height="5.60272" fill="#E0E0E0"/>
<rect x="2.84326" y="296.141" width="349.107" height="5.60272" fill="url(#paint13_linear_574_625)"/>
<rect x="2.84326" y="301.743" width="349.107" height="5.60272" fill="#E0E0E0"/>
<rect x="2.84326" y="307.346" width="349.107" height="5.60272" fill="url(#paint14_linear_574_625)"/>
<rect x="2.84326" y="312.949" width="349.107" height="5.60272" fill="#E0E0E0"/>
<rect x="2.84326" y="318.552" width="349.107" height="5.60272" fill="url(#paint15_linear_574_625)"/>
<rect x="2.84326" y="324.154" width="349.107" height="5.60272" fill="#E0E0E0"/>
<rect x="2.84326" y="329.757" width="349.107" height="5.60272" fill="url(#paint16_linear_574_625)"/>
<rect x="2.84326" y="335.36" width="349.107" height="5.60272" fill="#E0E0E0"/>
<rect x="2.84326" y="340.962" width="349.107" height="5.60272" fill="url(#paint17_linear_574_625)"/>
<rect x="2.84326" y="346.565" width="349.107" height="5.60272" fill="#E0E0E0"/>
<rect x="2.84326" y="352.168" width="349.107" height="5.60272" fill="url(#paint18_linear_574_625)"/>
<rect x="2.84326" y="357.771" width="349.107" height="5.60272" fill="#E0E0E0"/>
<rect x="2.84326" y="363.373" width="349.107" height="5.60272" fill="url(#paint19_linear_574_625)"/>
<rect x="2.84326" y="368.976" width="349.107" height="5.60272" fill="#E0E0E0"/>
<rect x="2.84326" y="374.579" width="349.107" height="5.60272" fill="url(#paint20_linear_574_625)"/>
<rect x="2.84326" y="380.181" width="349.107" height="5.60272" fill="#E0E0E0"/>
<rect x="2.84326" y="385.784" width="349.107" height="5.60272" fill="url(#paint21_linear_574_625)"/>
<rect x="2.84326" y="391.387" width="349.107" height="5.60272" fill="#E0E0E0"/>
<rect x="2.84326" y="396.99" width="349.107" height="5.60272" fill="url(#paint22_linear_574_625)"/>
<rect x="2.84326" y="406.99" width="349.107" height="5.60272" fill="url(#paint23_linear_574_625)"/>
<rect x="2.84326" y="402.592" width="349.107" height="5.60272" fill="#E0E0E0"/>
<rect x="2.84326" y="156.278" width="349.107" height="5.60272" fill="#E0E0E0"/>
<rect x="2.67188" y="291.239" width="349.107" height="1.86757" fill="black"/>
<rect x="2.67188" y="412.631" width="349.107" height="1.86757" fill="black"/>
<rect x="44.9199" y="162.376" width="130.73" height="2.51156" transform="rotate(90 44.9199 162.376)" fill="black"/>
<rect x="312.043" y="162.376" width="130.73" height="2.51156" transform="rotate(90 312.043 162.376)" fill="black"/>
<rect x="44.9482" y="315.089" width="101.455" height="2.56849" transform="rotate(90 44.9482 315.089)" fill="black"/>
<rect x="312.071" y="315.089" width="101.455" height="2.56849" transform="rotate(90 312.071 315.089)" fill="black"/>
<rect x="178.785" y="292.692" width="120.719" height="2.56849" transform="rotate(90 178.785 292.692)" fill="black"/>
<path d="M6.55664 411.123H349.155" stroke="black" stroke-dasharray="5 4"/>
<path d="M142.532 12.4207H214.487L351.516 152.196H2.84326L142.532 12.4207Z" fill="url(#paint24_linear_574_625)"/>
<path d="M142.184 12.2485L3.92725 150.655" stroke="black"/>
<path d="M213.46 12.2485L350.525 150.655" stroke="black"/>
<path d="M198.691 12.2485L328.087 152.22" stroke="black"/>
<path d="M185.848 12.2485L251.033 152.22" stroke="black"/>
<path d="M157.595 12.2485L41.7188 150.779" stroke="black"/>
<path d="M170.437 12.2485L118.773 152.22" stroke="black"/>
<rect x="3.17188" y="149.589" width="348.315" height="6.20491" fill="#B2B2B2" stroke="black"/>
<rect x="142.042" y="0.5" width="72.2021" height="11.9688" fill="url(#paint25_linear_574_625)" stroke="black"/>
<rect x="143.168" y="5.76392" width="69.9486" height="1.44098" fill="black"/>
<rect x="0.5" y="-0.5" width="76.0548" height="9.27403" transform="matrix(1 0 0 -1 138.973 692.274)" fill="url(#paint26_linear_574_625)" stroke="black"/>
<rect width="75.7705" height="1.28425" transform="matrix(1 0 0 -1 138.973 689.421)" fill="black"/>
<rect x="46.0205" y="679" width="267" height="4" fill="black"/>
<rect x="156.678" y="683" width="42.3801" height="1.28425" fill="#D9D9D9"/>
<rect x="157.062" y="681" width="42" height="2" fill="white"/>
<rect x="60.9058" y="579.21" width="300.475" height="3.63699" transform="rotate(39 60.9058 579.21)" fill="#ACACAC" stroke="black" stroke-width="1.5"/>
<rect x="-0.110869" y="1.05485" width="301.271" height="3.63699" transform="matrix(-0.777146 0.62932 0.62932 0.777146 291.395 580.762)" fill="#ACACAC" stroke="black" stroke-width="1.5"/>
<rect x="54.2261" y="415.195" width="11.8425" height="394.305" fill="white" stroke="black"/>
<rect x="287.226" y="415.195" width="11.8425" height="394.305" fill="white" stroke="black"/>
<path d="M258.726 404V418.5L271.726 434.5H329.726L335.726 418.5V404H258.726Z" fill="#D9D9D9" stroke="black"/>
<path d="M94.7261 404V418.5L81.7261 434.5H23.7261L17.7261 418.5V404H94.7261Z" fill="#D9D9D9" stroke="black"/>
<rect x="302.226" y="415.195" width="11.8425" height="394.305" fill="white" stroke="black"/>
<rect x="39.2261" y="415.195" width="11.8425" height="394.305" fill="white" stroke="black"/>
<circle cx="278.226" cy="414.5" r="1.5" fill="black"/>
<circle cx="278.226" cy="430.5" r="1.5" fill="black"/>
<circle cx="28.2261" cy="414.5" r="1.5" fill="black"/>
<circle cx="28.2261" cy="430.5" r="1.5" fill="black"/>
<defs>
<linearGradient id="paint0_linear_574_625" x1="178.802" y1="415.44" x2="178.802" y2="682" gradientUnits="userSpaceOnUse">
<stop stop-color="#818181"/>
<stop offset="1" stop-color="white"/>
</linearGradient>
<linearGradient id="paint1_linear_574_625" x1="2.84326" y1="164.477" x2="351.95" y2="164.477" gradientUnits="userSpaceOnUse">
<stop stop-color="#696969"/>
<stop offset="0.504529" stop-color="#DEDEDE"/>
<stop offset="1" stop-color="#696969"/>
</linearGradient>
<linearGradient id="paint2_linear_574_625" x1="2.84326" y1="175.682" x2="351.95" y2="175.682" gradientUnits="userSpaceOnUse">
<stop stop-color="#696969"/>
<stop offset="0.504529" stop-color="#DEDEDE"/>
<stop offset="1" stop-color="#696969"/>
</linearGradient>
<linearGradient id="paint3_linear_574_625" x1="2.84326" y1="186.888" x2="351.95" y2="186.888" gradientUnits="userSpaceOnUse">
<stop stop-color="#696969"/>
<stop offset="0.504529" stop-color="#DEDEDE"/>
<stop offset="1" stop-color="#696969"/>
</linearGradient>
<linearGradient id="paint4_linear_574_625" x1="2.84326" y1="198.093" x2="351.95" y2="198.093" gradientUnits="userSpaceOnUse">
<stop stop-color="#696969"/>
<stop offset="0.504529" stop-color="#DEDEDE"/>
<stop offset="1" stop-color="#696969"/>
</linearGradient>
<linearGradient id="paint5_linear_574_625" x1="2.84326" y1="209.298" x2="351.95" y2="209.298" gradientUnits="userSpaceOnUse">
<stop stop-color="#696969"/>
<stop offset="0.504529" stop-color="#DEDEDE"/>
<stop offset="1" stop-color="#696969"/>
</linearGradient>
<linearGradient id="paint6_linear_574_625" x1="2.84326" y1="220.504" x2="351.95" y2="220.504" gradientUnits="userSpaceOnUse">
<stop stop-color="#696969"/>
<stop offset="0.504529" stop-color="#DEDEDE"/>
<stop offset="1" stop-color="#696969"/>
</linearGradient>
<linearGradient id="paint7_linear_574_625" x1="2.84326" y1="231.71" x2="351.95" y2="231.71" gradientUnits="userSpaceOnUse">
<stop stop-color="#696969"/>
<stop offset="0.504529" stop-color="#DEDEDE"/>
<stop offset="1" stop-color="#696969"/>
</linearGradient>
<linearGradient id="paint8_linear_574_625" x1="2.84326" y1="242.915" x2="351.95" y2="242.915" gradientUnits="userSpaceOnUse">
<stop stop-color="#696969"/>
<stop offset="0.504529" stop-color="#DEDEDE"/>
<stop offset="1" stop-color="#696969"/>
</linearGradient>
<linearGradient id="paint9_linear_574_625" x1="2.84326" y1="254.12" x2="351.95" y2="254.12" gradientUnits="userSpaceOnUse">
<stop stop-color="#696969"/>
<stop offset="0.504529" stop-color="#DEDEDE"/>
<stop offset="1" stop-color="#696969"/>
</linearGradient>
<linearGradient id="paint10_linear_574_625" x1="2.84326" y1="265.326" x2="351.95" y2="265.326" gradientUnits="userSpaceOnUse">
<stop stop-color="#696969"/>
<stop offset="0.504529" stop-color="#DEDEDE"/>
<stop offset="1" stop-color="#696969"/>
</linearGradient>
<linearGradient id="paint11_linear_574_625" x1="2.84326" y1="276.531" x2="351.95" y2="276.531" gradientUnits="userSpaceOnUse">
<stop stop-color="#696969"/>
<stop offset="0.504529" stop-color="#DEDEDE"/>
<stop offset="1" stop-color="#696969"/>
</linearGradient>
<linearGradient id="paint12_linear_574_625" x1="2.84326" y1="287.737" x2="351.95" y2="287.737" gradientUnits="userSpaceOnUse">
<stop stop-color="#696969"/>
<stop offset="0.504529" stop-color="#DEDEDE"/>
<stop offset="1" stop-color="#696969"/>
</linearGradient>
<linearGradient id="paint13_linear_574_625" x1="2.84326" y1="298.942" x2="351.95" y2="298.942" gradientUnits="userSpaceOnUse">
<stop stop-color="#696969"/>
<stop offset="0.504529" stop-color="#DEDEDE"/>
<stop offset="1" stop-color="#696969"/>
</linearGradient>
<linearGradient id="paint14_linear_574_625" x1="2.84326" y1="310.147" x2="351.95" y2="310.147" gradientUnits="userSpaceOnUse">
<stop stop-color="#696969"/>
<stop offset="0.504529" stop-color="#DEDEDE"/>
<stop offset="1" stop-color="#696969"/>
</linearGradient>
<linearGradient id="paint15_linear_574_625" x1="2.84326" y1="321.353" x2="351.95" y2="321.353" gradientUnits="userSpaceOnUse">
<stop stop-color="#696969"/>
<stop offset="0.504529" stop-color="#DEDEDE"/>
<stop offset="1" stop-color="#696969"/>
</linearGradient>
<linearGradient id="paint16_linear_574_625" x1="2.84326" y1="332.558" x2="351.95" y2="332.558" gradientUnits="userSpaceOnUse">
<stop stop-color="#696969"/>
<stop offset="0.504529" stop-color="#DEDEDE"/>
<stop offset="1" stop-color="#696969"/>
</linearGradient>
<linearGradient id="paint17_linear_574_625" x1="2.84326" y1="343.764" x2="351.95" y2="343.764" gradientUnits="userSpaceOnUse">
<stop stop-color="#696969"/>
<stop offset="0.504529" stop-color="#DEDEDE"/>
<stop offset="1" stop-color="#696969"/>
</linearGradient>
<linearGradient id="paint18_linear_574_625" x1="2.84326" y1="354.969" x2="351.95" y2="354.969" gradientUnits="userSpaceOnUse">
<stop stop-color="#696969"/>
<stop offset="0.504529" stop-color="#DEDEDE"/>
<stop offset="1" stop-color="#696969"/>
</linearGradient>
<linearGradient id="paint19_linear_574_625" x1="2.84326" y1="366.174" x2="351.95" y2="366.174" gradientUnits="userSpaceOnUse">
<stop stop-color="#696969"/>
<stop offset="0.504529" stop-color="#DEDEDE"/>
<stop offset="1" stop-color="#696969"/>
</linearGradient>
<linearGradient id="paint20_linear_574_625" x1="2.84326" y1="377.38" x2="351.95" y2="377.38" gradientUnits="userSpaceOnUse">
<stop stop-color="#696969"/>
<stop offset="0.504529" stop-color="#DEDEDE"/>
<stop offset="1" stop-color="#696969"/>
</linearGradient>
<linearGradient id="paint21_linear_574_625" x1="2.84326" y1="388.586" x2="351.95" y2="388.586" gradientUnits="userSpaceOnUse">
<stop stop-color="#696969"/>
<stop offset="0.504529" stop-color="#DEDEDE"/>
<stop offset="1" stop-color="#696969"/>
</linearGradient>
<linearGradient id="paint22_linear_574_625" x1="2.84326" y1="399.791" x2="351.95" y2="399.791" gradientUnits="userSpaceOnUse">
<stop stop-color="#696969"/>
<stop offset="0.504529" stop-color="#DEDEDE"/>
<stop offset="1" stop-color="#696969"/>
</linearGradient>
<linearGradient id="paint23_linear_574_625" x1="2.84326" y1="409.791" x2="351.95" y2="409.791" gradientUnits="userSpaceOnUse">
<stop stop-color="#696969"/>
<stop offset="0.504529" stop-color="#DEDEDE"/>
<stop offset="1" stop-color="#696969"/>
</linearGradient>
<linearGradient id="paint24_linear_574_625" x1="5.13647" y1="82.3082" x2="349.315" y2="82.3082" gradientUnits="userSpaceOnUse">
<stop stop-color="#8D8D8D"/>
<stop offset="0.543269" stop-color="#EDEDED"/>
<stop offset="1" stop-color="#8D8D8D"/>
</linearGradient>
<linearGradient id="paint25_linear_574_625" x1="141.542" y1="6.48441" x2="214.744" y2="6.48441" gradientUnits="userSpaceOnUse">
<stop stop-color="#8E8E8E"/>
<stop offset="0.504529" stop-color="#DEDEDE"/>
<stop offset="1" stop-color="#8E8E8E"/>
</linearGradient>
<linearGradient id="paint26_linear_574_625" x1="7.17628e-07" y1="5.13701" x2="77.0548" y2="5.13701" gradientUnits="userSpaceOnUse">
<stop stop-color="#696969"/>
<stop offset="0.504529" stop-color="#DEDEDE"/>
<stop offset="1" stop-color="#696969"/>
</linearGradient>
</defs>
</svg>
